<?xml version="1.0" encoding="UTF-8" standalone="no"?>
<!DOCTYPE svg PUBLIC "-//W3C//DTD SVG 1.1//EN"
 "http://www.w3.org/Graphics/SVG/1.1/DTD/svg11.dtd">
<!-- Generated by graphviz version 2.40.1 (20161225.0304)
 -->
<!-- Title: G Pages: 1 -->
<svg width="2017pt" height="980pt"
 viewBox="0.00 0.00 2017.30 980.00" xmlns="http://www.w3.org/2000/svg" xmlns:xlink="http://www.w3.org/1999/xlink">
<g id="graph0" class="graph" transform="scale(1 1) rotate(0) translate(4 976)">
<title>G</title>
<polygon fill="#ffffff" stroke="transparent" points="-4,4 -4,-976 2013.2958,-976 2013.2958,4 -4,4"/>
<!-- tx -->
<g id="node1" class="node">
<title>tx</title>
<ellipse fill="none" stroke="#000000" cx="273.2958" cy="-954" rx="27" ry="18"/>
<text text-anchor="middle" x="273.2958" y="-949.8" font-family="Times,serif" font-size="14.00" fill="#000000">tx</text>
</g>
<!-- dx -->
<g id="node2" class="node">
<title>dx</title>
<ellipse fill="none" stroke="#000000" cx="218.2958" cy="-882" rx="27" ry="18"/>
<text text-anchor="middle" x="218.2958" y="-877.8" font-family="Times,serif" font-size="14.00" fill="#000000">dx</text>
</g>
<!-- tx&#45;&gt;dx -->
<g id="edge1" class="edge">
<title>tx&#45;&gt;dx</title>
<path fill="none" stroke="#000000" d="M260.8155,-937.6621C253.7834,-928.4564 244.8612,-916.7764 237.0075,-906.4953"/>
<polygon fill="#000000" stroke="#000000" points="239.5786,-904.0953 230.7268,-898.2733 234.0159,-908.3446 239.5786,-904.0953"/>
</g>
<!-- pz -->
<g id="node14" class="node">
<title>pz</title>
<polygon fill="none" stroke="#ff9100" points="253.2958,-756 199.2958,-756 199.2958,-720 253.2958,-720 253.2958,-756"/>
<text text-anchor="middle" x="226.2958" y="-733.8" font-family="Times,serif" font-size="14.00" fill="#000000">pz</text>
</g>
<!-- dx&#45;&gt;pz -->
<g id="edge54" class="edge">
<title>dx&#45;&gt;pz</title>
<path fill="none" stroke="#000000" d="M219.309,-863.7623C220.6736,-839.201 223.1154,-795.2474 224.7206,-766.3541"/>
<polygon fill="#000000" stroke="#000000" points="228.2307,-766.2684 225.2909,-756.0896 221.2414,-765.88 228.2307,-766.2684"/>
</g>
<!-- ph -->
<g id="node39" class="node">
<title>ph</title>
<ellipse fill="none" stroke="#000000" cx="171.2958" cy="-810" rx="27" ry="18"/>
<text text-anchor="middle" x="171.2958" y="-805.8" font-family="Times,serif" font-size="14.00" fill="#000000">ph</text>
</g>
<!-- dx&#45;&gt;ph -->
<g id="edge55" class="edge">
<title>dx&#45;&gt;ph</title>
<path fill="none" stroke="#000000" d="M207.395,-865.3008C201.5223,-856.3043 194.1592,-845.0247 187.6172,-835.0029"/>
<polygon fill="#000000" stroke="#000000" points="190.5347,-833.0693 182.1376,-826.6087 184.673,-836.8957 190.5347,-833.0693"/>
</g>
<!-- nx -->
<g id="node3" class="node">
<title>nx</title>
<ellipse fill="none" stroke="#000000" cx="1306.2958" cy="-378" rx="27" ry="18"/>
<text text-anchor="middle" x="1306.2958" y="-373.8" font-family="Times,serif" font-size="14.00" fill="#000000">nx</text>
</g>
<!-- fn -->
<g id="node4" class="node">
<title>fn</title>
<ellipse fill="none" stroke="#000000" cx="1268.2958" cy="-306" rx="27" ry="18"/>
<text text-anchor="middle" x="1268.2958" y="-301.8" font-family="Times,serif" font-size="14.00" fill="#000000">fn</text>
</g>
<!-- nx&#45;&gt;fn -->
<g id="edge2" class="edge">
<title>nx&#45;&gt;fn</title>
<path fill="none" stroke="#000000" d="M1297.2904,-360.937C1292.8131,-352.4537 1287.3007,-342.0092 1282.2888,-332.513"/>
<polygon fill="#000000" stroke="#000000" points="1285.2636,-330.6509 1277.5006,-323.4407 1279.0729,-333.9182 1285.2636,-330.6509"/>
</g>
<!-- rn -->
<g id="node5" class="node">
<title>rn</title>
<polygon fill="none" stroke="#ff9100" points="1297.2958,-756 1243.2958,-756 1243.2958,-720 1297.2958,-720 1297.2958,-756"/>
<text text-anchor="middle" x="1270.2958" y="-733.8" font-family="Times,serif" font-size="14.00" fill="#000000">rn</text>
</g>
<!-- nx&#45;&gt;rn -->
<g id="edge3" class="edge">
<title>nx&#45;&gt;rn</title>
<path fill="none" stroke="#000000" d="M1320.4512,-393.3843C1352.8058,-430.4831 1427.2898,-528.0181 1399.2958,-612 1383.7313,-658.6937 1338.6302,-695.5574 1306.1419,-717.0538"/>
<polygon fill="#000000" stroke="#000000" points="1303.8686,-714.3542 1297.348,-722.7048 1307.6529,-720.2432 1303.8686,-714.3542"/>
</g>
<!-- kn -->
<g id="node45" class="node">
<title>kn</title>
<ellipse fill="none" stroke="#000000" cx="1268.2958" cy="-234" rx="27" ry="18"/>
<text text-anchor="middle" x="1268.2958" y="-229.8" font-family="Times,serif" font-size="14.00" fill="#000000">kn</text>
</g>
<!-- fn&#45;&gt;kn -->
<g id="edge50" class="edge">
<title>fn&#45;&gt;kn</title>
<path fill="none" stroke="#000000" d="M1268.2958,-287.8314C1268.2958,-280.131 1268.2958,-270.9743 1268.2958,-262.4166"/>
<polygon fill="#000000" stroke="#000000" points="1271.7959,-262.4132 1268.2958,-252.4133 1264.7959,-262.4133 1271.7959,-262.4132"/>
</g>
<!-- rn&#45;&gt;fn -->
<g id="edge94" class="edge">
<title>rn&#45;&gt;fn</title>
<path fill="none" stroke="#000000" d="M1262.237,-719.7668C1251.0825,-692.8248 1232.2958,-640.5405 1232.2958,-594 1232.2958,-594 1232.2958,-594 1232.2958,-450 1232.2958,-408.2294 1246.7288,-361.6235 1257.3174,-333.052"/>
<polygon fill="#000000" stroke="#000000" points="1260.7116,-333.9746 1261.0107,-323.384 1254.1725,-331.4765 1260.7116,-333.9746"/>
</g>
<!-- xc -->
<g id="node32" class="node">
<title>xc</title>
<ellipse fill="none" stroke="#000000" cx="1306.2958" cy="-450" rx="27" ry="18"/>
<text text-anchor="middle" x="1306.2958" y="-445.8" font-family="Times,serif" font-size="14.00" fill="#000000">xc</text>
</g>
<!-- rn&#45;&gt;xc -->
<g id="edge98" class="edge">
<title>rn&#45;&gt;xc</title>
<path fill="none" stroke="#000000" d="M1270.3921,-719.9052C1270.9012,-680.3576 1273.7773,-583.4038 1289.2958,-504 1291.0114,-495.222 1293.6554,-485.8613 1296.351,-477.4413"/>
<polygon fill="#000000" stroke="#000000" points="1299.7432,-478.3337 1299.6056,-467.7397 1293.1067,-476.1072 1299.7432,-478.3337"/>
</g>
<!-- ff -->
<g id="node40" class="node">
<title>ff</title>
<ellipse fill="none" stroke="#000000" cx="1325.2958" cy="-522" rx="27" ry="18"/>
<text text-anchor="middle" x="1325.2958" y="-517.8" font-family="Times,serif" font-size="14.00" fill="#000000">ff</text>
</g>
<!-- rn&#45;&gt;ff -->
<g id="edge97" class="edge">
<title>rn&#45;&gt;ff</title>
<path fill="none" stroke="#000000" d="M1275.1171,-719.5125C1277.8288,-709.0874 1281.2676,-695.8213 1284.2958,-684 1296.3268,-637.0351 1310.1214,-582.3551 1318.2505,-550.0445"/>
<polygon fill="#000000" stroke="#000000" points="1321.7349,-550.5397 1320.7795,-539.988 1314.9463,-548.8325 1321.7349,-550.5397"/>
</g>
<!-- sk -->
<g id="node46" class="node">
<title>sk</title>
<ellipse fill="none" stroke="#000000" cx="1439.2958" cy="-666" rx="27" ry="18"/>
<text text-anchor="middle" x="1439.2958" y="-661.8" font-family="Times,serif" font-size="14.00" fill="#000000">sk</text>
</g>
<!-- rn&#45;&gt;sk -->
<g id="edge100" class="edge">
<title>rn&#45;&gt;sk</title>
<path fill="none" stroke="#000000" d="M1297.3131,-726.7355C1323.2519,-715.8891 1363.5143,-698.9708 1398.2958,-684 1401.2948,-682.7092 1404.4134,-681.3574 1407.5315,-679.9994"/>
<polygon fill="#000000" stroke="#000000" points="1409.0048,-683.1752 1416.7646,-675.9616 1406.2,-676.7617 1409.0048,-683.1752"/>
</g>
<!-- hr -->
<g id="node47" class="node">
<title>hr</title>
<ellipse fill="none" stroke="#000000" cx="1363.2958" cy="-594" rx="27" ry="18"/>
<text text-anchor="middle" x="1363.2958" y="-589.8" font-family="Times,serif" font-size="14.00" fill="#000000">hr</text>
</g>
<!-- rn&#45;&gt;hr -->
<g id="edge95" class="edge">
<title>rn&#45;&gt;hr</title>
<path fill="none" stroke="#000000" d="M1290.7856,-719.8968C1301.1414,-710.0114 1313.3696,-697.1318 1322.2958,-684 1335.5708,-664.4705 1346.4156,-639.9492 1353.61,-621.4361"/>
<polygon fill="#000000" stroke="#000000" points="1356.9752,-622.4309 1357.2236,-611.839 1350.4242,-619.9642 1356.9752,-622.4309"/>
</g>
<!-- bx -->
<g id="node49" class="node">
<title>bx</title>
<ellipse fill="none" stroke="#000000" cx="1270.2958" cy="-882" rx="27" ry="18"/>
<text text-anchor="middle" x="1270.2958" y="-877.8" font-family="Times,serif" font-size="14.00" fill="#000000">bx</text>
</g>
<!-- rn&#45;&gt;bx -->
<g id="edge96" class="edge">
<title>rn&#45;&gt;bx</title>
<path fill="none" stroke="#000000" d="M1274.9625,-756.1727C1277.4323,-780.7613 1277.7061,-824.8705 1275.7839,-853.7871"/>
<polygon fill="#000000" stroke="#000000" points="1272.2711,-853.8002 1274.9396,-864.0535 1279.2475,-854.374 1272.2711,-853.8002"/>
</g>
<!-- sp -->
<g id="node56" class="node">
<title>sp</title>
<polygon fill="none" stroke="#ff9100" points="1090.2958,-684 1036.2958,-684 1036.2958,-648 1090.2958,-648 1090.2958,-684"/>
<text text-anchor="middle" x="1063.2958" y="-661.8" font-family="Times,serif" font-size="14.00" fill="#000000">sp</text>
</g>
<!-- rn&#45;&gt;sp -->
<g id="edge99" class="edge">
<title>rn&#45;&gt;sp</title>
<path fill="none" stroke="#000000" d="M1243.2723,-730.1106C1210.182,-720.2441 1152.5802,-702.4006 1104.2958,-684 1102.8884,-683.4636 1101.4591,-682.9054 1100.0194,-682.3316"/>
<polygon fill="#000000" stroke="#000000" points="1101.0652,-678.9765 1090.4868,-678.387 1098.3887,-685.4447 1101.0652,-678.9765"/>
</g>
<!-- nr -->
<g id="node6" class="node">
<title>nr</title>
<ellipse fill="none" stroke="#000000" cx="562.2958" cy="-234" rx="27" ry="18"/>
<text text-anchor="middle" x="562.2958" y="-229.8" font-family="Times,serif" font-size="14.00" fill="#000000">nr</text>
</g>
<!-- cj -->
<g id="node7" class="node">
<title>cj</title>
<ellipse fill="none" stroke="#000000" cx="647.2958" cy="-162" rx="27" ry="18"/>
<text text-anchor="middle" x="647.2958" y="-157.8" font-family="Times,serif" font-size="14.00" fill="#000000">cj</text>
</g>
<!-- nr&#45;&gt;cj -->
<g id="edge4" class="edge">
<title>nr&#45;&gt;cj</title>
<path fill="none" stroke="#000000" d="M579.0891,-219.7751C591.546,-209.2234 608.7224,-194.674 622.7217,-182.8157"/>
<polygon fill="#000000" stroke="#000000" points="625.1692,-185.3295 630.5375,-176.1953 620.6448,-179.9881 625.1692,-185.3295"/>
</g>
<!-- mh -->
<g id="node8" class="node">
<title>mh</title>
<polygon fill="none" stroke="#ff9100" points="705.2958,-756 651.2958,-756 651.2958,-720 705.2958,-720 705.2958,-756"/>
<text text-anchor="middle" x="678.2958" y="-733.8" font-family="Times,serif" font-size="14.00" fill="#000000">mh</text>
</g>
<!-- nr&#45;&gt;mh -->
<g id="edge5" class="edge">
<title>nr&#45;&gt;mh</title>
<path fill="none" stroke="#000000" d="M548.0279,-249.4916C526.5243,-274.5178 488.2958,-326.2816 488.2958,-378 488.2958,-594 488.2958,-594 488.2958,-594 488.2958,-639.5442 503.0251,-654.0035 537.2958,-684 566.979,-709.981 610.4881,-724.0767 641.3108,-731.2826"/>
<polygon fill="#000000" stroke="#000000" points="640.7203,-734.7363 651.2391,-733.4693 642.2261,-727.9002 640.7203,-734.7363"/>
</g>
<!-- cj&#45;&gt;mh -->
<g id="edge69" class="edge">
<title>cj&#45;&gt;mh</title>
<path fill="none" stroke="#000000" d="M665.7102,-175.2174C695.3366,-198.1795 750.2958,-248.5218 750.2958,-306 750.2958,-522 750.2958,-522 750.2958,-522 750.2958,-593.1767 714.6746,-671.0889 693.5425,-711.0476"/>
<polygon fill="#000000" stroke="#000000" points="690.4328,-709.4403 688.7652,-719.9031 696.5935,-712.7638 690.4328,-709.4403"/>
</g>
<!-- vh -->
<g id="node53" class="node">
<title>vh</title>
<ellipse fill="none" stroke="#000000" cx="647.2958" cy="-90" rx="27" ry="18"/>
<text text-anchor="middle" x="647.2958" y="-85.8" font-family="Times,serif" font-size="14.00" fill="#000000">vh</text>
</g>
<!-- cj&#45;&gt;vh -->
<g id="edge70" class="edge">
<title>cj&#45;&gt;vh</title>
<path fill="none" stroke="#000000" d="M647.2958,-143.8314C647.2958,-136.131 647.2958,-126.9743 647.2958,-118.4166"/>
<polygon fill="#000000" stroke="#000000" points="650.7959,-118.4132 647.2958,-108.4133 643.7959,-118.4133 650.7959,-118.4132"/>
</g>
<!-- qs -->
<g id="node27" class="node">
<title>qs</title>
<polygon fill="none" stroke="#ff9100" points="980.2958,-684 926.2958,-684 926.2958,-648 980.2958,-648 980.2958,-684"/>
<text text-anchor="middle" x="953.2958" y="-661.8" font-family="Times,serif" font-size="14.00" fill="#000000">qs</text>
</g>
<!-- mh&#45;&gt;qs -->
<g id="edge45" class="edge">
<title>mh&#45;&gt;qs</title>
<path fill="none" stroke="#000000" d="M705.418,-734.0631C748.6224,-727.3294 835.6339,-711.8755 916.2782,-683.9307"/>
<polygon fill="#000000" stroke="#000000" points="917.8198,-687.0978 926.078,-680.4606 915.4832,-680.4993 917.8198,-687.0978"/>
</g>
<!-- hx -->
<g id="node33" class="node">
<title>hx</title>
<ellipse fill="none" stroke="#000000" cx="881.2958" cy="-666" rx="27" ry="18"/>
<text text-anchor="middle" x="881.2958" y="-661.8" font-family="Times,serif" font-size="14.00" fill="#000000">hx</text>
</g>
<!-- mh&#45;&gt;hx -->
<g id="edge46" class="edge">
<title>mh&#45;&gt;hx</title>
<path fill="none" stroke="#000000" d="M705.5098,-729.7695C737.9178,-719.7755 793.5429,-702.0112 840.2958,-684 843.3426,-682.8263 846.4932,-681.5532 849.6316,-680.2449"/>
<polygon fill="#000000" stroke="#000000" points="851.0789,-683.4326 858.8939,-676.2788 848.3235,-676.9977 851.0789,-683.4326"/>
</g>
<!-- xb -->
<g id="node34" class="node">
<title>xb</title>
<ellipse fill="none" stroke="#000000" cx="695.2958" cy="-594" rx="27" ry="18"/>
<text text-anchor="middle" x="695.2958" y="-589.8" font-family="Times,serif" font-size="14.00" fill="#000000">xb</text>
</g>
<!-- mh&#45;&gt;xb -->
<g id="edge47" class="edge">
<title>mh&#45;&gt;xb</title>
<path fill="none" stroke="#000000" d="M680.4489,-719.7623C683.3485,-695.201 688.5375,-651.2474 691.9485,-622.3541"/>
<polygon fill="#000000" stroke="#000000" points="695.4636,-622.431 693.1603,-612.0896 688.5119,-621.6103 695.4636,-622.431"/>
</g>
<!-- bc -->
<g id="node43" class="node">
<title>bc</title>
<ellipse fill="none" stroke="#000000" cx="619.2958" cy="-450" rx="27" ry="18"/>
<text text-anchor="middle" x="619.2958" y="-445.8" font-family="Times,serif" font-size="14.00" fill="#000000">bc</text>
</g>
<!-- mh&#45;&gt;bc -->
<g id="edge44" class="edge">
<title>mh&#45;&gt;bc</title>
<path fill="none" stroke="#000000" d="M671.4191,-719.6274C667.6347,-709.2383 662.9745,-695.9698 659.2958,-684 639.8511,-620.7296 630.5397,-605.5422 621.2958,-540 618.3902,-519.398 617.9657,-495.885 618.2276,-478.0598"/>
<polygon fill="#000000" stroke="#000000" points="621.7273,-478.1074 618.4554,-468.0305 614.7291,-477.9484 621.7273,-478.1074"/>
</g>
<!-- nv -->
<g id="node44" class="node">
<title>nv</title>
<ellipse fill="none" stroke="#000000" cx="710.2958" cy="-882" rx="27" ry="18"/>
<text text-anchor="middle" x="710.2958" y="-877.8" font-family="Times,serif" font-size="14.00" fill="#000000">nv</text>
</g>
<!-- mh&#45;&gt;nv -->
<g id="edge48" class="edge">
<title>mh&#45;&gt;nv</title>
<path fill="none" stroke="#000000" d="M686.974,-756.0896C694.9182,-780.6805 705.021,-824.905 709.5246,-853.8531"/>
<polygon fill="#000000" stroke="#000000" points="706.0595,-854.3462 710.9162,-863.7623 712.9914,-853.3727 706.0595,-854.3462"/>
</g>
<!-- nk -->
<g id="node9" class="node">
<title>nk</title>
<ellipse fill="none" stroke="#000000" cx="1954.2958" cy="-162" rx="27" ry="18"/>
<text text-anchor="middle" x="1954.2958" y="-157.8" font-family="Times,serif" font-size="14.00" fill="#000000">nk</text>
</g>
<!-- jt -->
<g id="node10" class="node">
<title>jt</title>
<polygon fill="none" stroke="#ff9100" points="1781.2958,-972 1727.2958,-972 1727.2958,-936 1781.2958,-936 1781.2958,-972"/>
<text text-anchor="middle" x="1754.2958" y="-949.8" font-family="Times,serif" font-size="14.00" fill="#000000">jt</text>
</g>
<!-- nk&#45;&gt;jt -->
<g id="edge6" class="edge">
<title>nk&#45;&gt;jt</title>
<path fill="none" stroke="#000000" d="M1957.8182,-180.1045C1962.7976,-207.3176 1971.2958,-260.4358 1971.2958,-306 1971.2958,-810 1971.2958,-810 1971.2958,-810 1971.2958,-895.4451 1853.0437,-933.2103 1791.1271,-947.1279"/>
<polygon fill="#000000" stroke="#000000" points="1790.3798,-943.7085 1781.3403,-949.2346 1791.8529,-950.5517 1790.3798,-943.7085"/>
</g>
<!-- vk -->
<g id="node11" class="node">
<title>vk</title>
<ellipse fill="none" stroke="#000000" cx="1981.2958" cy="-90" rx="27" ry="18"/>
<text text-anchor="middle" x="1981.2958" y="-85.8" font-family="Times,serif" font-size="14.00" fill="#000000">vk</text>
</g>
<!-- nk&#45;&gt;vk -->
<g id="edge7" class="edge">
<title>nk&#45;&gt;vk</title>
<path fill="none" stroke="#000000" d="M1960.97,-144.2022C1964.0434,-136.0064 1967.7574,-126.1024 1971.1654,-117.0145"/>
<polygon fill="#000000" stroke="#000000" points="1974.4643,-118.1853 1974.6984,-107.593 1967.91,-115.7274 1974.4643,-118.1853"/>
</g>
<!-- fb -->
<g id="node21" class="node">
<title>fb</title>
<ellipse fill="none" stroke="#000000" cx="1802.2958" cy="-522" rx="27" ry="18"/>
<text text-anchor="middle" x="1802.2958" y="-517.8" font-family="Times,serif" font-size="14.00" fill="#000000">fb</text>
</g>
<!-- jt&#45;&gt;fb -->
<g id="edge17" class="edge">
<title>jt&#45;&gt;fb</title>
<path fill="none" stroke="#000000" d="M1768.7214,-935.6392C1787.871,-909.37 1819.2958,-858.8235 1819.2958,-810 1819.2958,-810 1819.2958,-810 1819.2958,-666 1819.2958,-625.5973 1812.614,-579.2552 1807.6285,-550.3013"/>
<polygon fill="#000000" stroke="#000000" points="1811.0124,-549.3387 1805.8182,-540.1045 1804.1201,-550.5623 1811.0124,-549.3387"/>
</g>
<!-- zb -->
<g id="node22" class="node">
<title>zb</title>
<ellipse fill="none" stroke="#000000" cx="1707.2958" cy="-594" rx="27" ry="18"/>
<text text-anchor="middle" x="1707.2958" y="-589.8" font-family="Times,serif" font-size="14.00" fill="#000000">zb</text>
</g>
<!-- jt&#45;&gt;zb -->
<g id="edge18" class="edge">
<title>jt&#45;&gt;zb</title>
<path fill="none" stroke="#000000" d="M1730.0543,-935.8241C1718.8917,-926.291 1706.3635,-913.7442 1698.2958,-900 1681.5424,-871.4583 1684.4624,-860.6897 1679.2958,-828 1666.7946,-748.9028 1648.0902,-724.6429 1671.2958,-648 1674.562,-637.2127 1680.7722,-626.6108 1687.1271,-617.6963"/>
<polygon fill="#000000" stroke="#000000" points="1689.9243,-619.8001 1693.1729,-609.7156 1684.3446,-615.5732 1689.9243,-619.8001"/>
</g>
<!-- jq -->
<g id="node23" class="node">
<title>jq</title>
<ellipse fill="none" stroke="#000000" cx="1587.2958" cy="-882" rx="27" ry="18"/>
<text text-anchor="middle" x="1587.2958" y="-877.8" font-family="Times,serif" font-size="14.00" fill="#000000">jq</text>
</g>
<!-- jt&#45;&gt;jq -->
<g id="edge19" class="edge">
<title>jt&#45;&gt;jq</title>
<path fill="none" stroke="#000000" d="M1726.9042,-945.0748C1699.287,-934.4128 1656.1945,-916.0062 1619.2958,-900 1618.2974,-899.5669 1617.2855,-899.1273 1616.2662,-898.6833"/>
<polygon fill="#000000" stroke="#000000" points="1617.612,-895.4516 1607.0498,-894.6206 1614.7885,-901.8569 1617.612,-895.4516"/>
</g>
<!-- sv -->
<g id="node24" class="node">
<title>sv</title>
<polygon fill="none" stroke="#ff9100" points="1134.2958,-828 1080.2958,-828 1080.2958,-792 1134.2958,-792 1134.2958,-828"/>
<text text-anchor="middle" x="1107.2958" y="-805.8" font-family="Times,serif" font-size="14.00" fill="#000000">sv</text>
</g>
<!-- jt&#45;&gt;sv -->
<g id="edge20" class="edge">
<title>jt&#45;&gt;sv</title>
<path fill="none" stroke="#000000" d="M1727.2211,-952.999C1633.8714,-949.2683 1326.1428,-934.571 1234.2958,-900 1195.6671,-885.4602 1157.9255,-856.234 1133.7625,-835.0213"/>
<polygon fill="#000000" stroke="#000000" points="1135.8919,-832.23 1126.1069,-828.1674 1131.2228,-837.4453 1135.8919,-832.23"/>
</g>
<!-- lp -->
<g id="node25" class="node">
<title>lp</title>
<ellipse fill="none" stroke="#000000" cx="1821.2958" cy="-378" rx="27" ry="18"/>
<text text-anchor="middle" x="1821.2958" y="-373.8" font-family="Times,serif" font-size="14.00" fill="#000000">lp</text>
</g>
<!-- jt&#45;&gt;lp -->
<g id="edge21" class="edge">
<title>jt&#45;&gt;lp</title>
<path fill="none" stroke="#000000" d="M1727.0967,-950.3232C1677.5357,-943.0701 1575.4005,-925.3902 1551.2958,-900 1523.1484,-870.3515 1532.2958,-850.8816 1532.2958,-810 1532.2958,-810 1532.2958,-810 1532.2958,-522 1532.2958,-410.9069 1705.4895,-385.5189 1783.726,-379.7178"/>
<polygon fill="#000000" stroke="#000000" points="1784.3637,-383.183 1794.1074,-379.0223 1783.8958,-376.1986 1784.3637,-383.183"/>
</g>
<!-- vk&#45;&gt;jt -->
<g id="edge109" class="edge">
<title>vk&#45;&gt;jt</title>
<path fill="none" stroke="#000000" d="M1987.0974,-107.9672C1995.2988,-135.0051 2009.2958,-187.9025 2009.2958,-234 2009.2958,-810 2009.2958,-810 2009.2958,-810 2009.2958,-908.6533 1862.7955,-940.4847 1791.8791,-950.1141"/>
<polygon fill="#000000" stroke="#000000" points="1791.0618,-946.6899 1781.5853,-951.4276 1791.9479,-953.6336 1791.0618,-946.6899"/>
</g>
<!-- mv -->
<g id="node12" class="node">
<title>mv</title>
<ellipse fill="none" stroke="#000000" cx="1211.2958" cy="-162" rx="27" ry="18"/>
<text text-anchor="middle" x="1211.2958" y="-157.8" font-family="Times,serif" font-size="14.00" fill="#000000">mv</text>
</g>
<!-- mv&#45;&gt;rn -->
<g id="edge9" class="edge">
<title>mv&#45;&gt;rn</title>
<path fill="none" stroke="#000000" d="M1207.7734,-180.1045C1202.794,-207.3176 1194.2958,-260.4358 1194.2958,-306 1194.2958,-594 1194.2958,-594 1194.2958,-594 1194.2958,-639.344 1224.1343,-684.4001 1246.4184,-711.7265"/>
<polygon fill="#000000" stroke="#000000" points="1243.9373,-714.2144 1253.0503,-719.6186 1249.2965,-709.7111 1243.9373,-714.2144"/>
</g>
<!-- fk -->
<g id="node13" class="node">
<title>fk</title>
<ellipse fill="none" stroke="#000000" cx="1173.2958" cy="-90" rx="27" ry="18"/>
<text text-anchor="middle" x="1173.2958" y="-85.8" font-family="Times,serif" font-size="14.00" fill="#000000">fk</text>
</g>
<!-- mv&#45;&gt;fk -->
<g id="edge8" class="edge">
<title>mv&#45;&gt;fk</title>
<path fill="none" stroke="#000000" d="M1202.2904,-144.937C1197.8131,-136.4537 1192.3007,-126.0092 1187.2888,-116.513"/>
<polygon fill="#000000" stroke="#000000" points="1190.2636,-114.6509 1182.5006,-107.4407 1184.0729,-117.9182 1190.2636,-114.6509"/>
</g>
<!-- fk&#45;&gt;rn -->
<g id="edge67" class="edge">
<title>fk&#45;&gt;rn</title>
<path fill="none" stroke="#000000" d="M1169.7734,-108.1045C1164.794,-135.3176 1156.2958,-188.4358 1156.2958,-234 1156.2958,-594 1156.2958,-594 1156.2958,-594 1156.2958,-645.4409 1201.5694,-689.2346 1235.0549,-714.5904"/>
<polygon fill="#000000" stroke="#000000" points="1233.1483,-717.5328 1243.2794,-720.633 1237.2929,-711.8916 1233.1483,-717.5328"/>
</g>
<!-- rv -->
<g id="node51" class="node">
<title>rv</title>
<ellipse fill="none" stroke="#000000" cx="1145.2958" cy="-18" rx="27" ry="18"/>
<text text-anchor="middle" x="1145.2958" y="-13.8" font-family="Times,serif" font-size="14.00" fill="#000000">rv</text>
</g>
<!-- fk&#45;&gt;rv -->
<g id="edge68" class="edge">
<title>fk&#45;&gt;rv</title>
<path fill="none" stroke="#000000" d="M1166.5178,-72.5708C1163.3086,-64.3187 1159.4023,-54.2738 1155.8201,-45.0623"/>
<polygon fill="#000000" stroke="#000000" points="1158.995,-43.5697 1152.1085,-35.5182 1152.471,-46.1069 1158.995,-43.5697"/>
</g>
<!-- pz&#45;&gt;tx -->
<g id="edge16" class="edge">
<title>pz&#45;&gt;tx</title>
<path fill="none" stroke="#000000" d="M230.4375,-756.3495C235.9567,-780.8671 245.9921,-825.6741 254.2958,-864 258.7974,-884.7772 263.7552,-908.2831 267.4773,-926.0612"/>
<polygon fill="#000000" stroke="#000000" points="264.0949,-926.9858 269.5666,-936.0583 270.9468,-925.5538 264.0949,-926.9858"/>
</g>
<!-- kt -->
<g id="node15" class="node">
<title>kt</title>
<ellipse fill="none" stroke="#000000" cx="133.2958" cy="-522" rx="27" ry="18"/>
<text text-anchor="middle" x="133.2958" y="-517.8" font-family="Times,serif" font-size="14.00" fill="#000000">kt</text>
</g>
<!-- pz&#45;&gt;kt -->
<g id="edge10" class="edge">
<title>pz&#45;&gt;kt</title>
<path fill="none" stroke="#000000" d="M204.0218,-719.7886C193.584,-710.1582 181.8189,-697.538 174.2958,-684 150.3899,-640.9803 140.1631,-583.8385 135.9838,-550.1815"/>
<polygon fill="#000000" stroke="#000000" points="139.4473,-549.6624 134.8297,-540.1268 132.4929,-550.4607 139.4473,-549.6624"/>
</g>
<!-- pg -->
<g id="node16" class="node">
<title>pg</title>
<polygon fill="none" stroke="#ff9100" points="798.2958,-684 744.2958,-684 744.2958,-648 798.2958,-648 798.2958,-684"/>
<text text-anchor="middle" x="771.2958" y="-661.8" font-family="Times,serif" font-size="14.00" fill="#000000">pg</text>
</g>
<!-- pz&#45;&gt;pg -->
<g id="edge11" class="edge">
<title>pz&#45;&gt;pg</title>
<path fill="none" stroke="#000000" d="M253.3225,-734.4295C343.0286,-722.5784 631.0535,-684.5274 734.1535,-670.9069"/>
<polygon fill="#000000" stroke="#000000" points="734.6506,-674.3717 744.1061,-669.592 733.7338,-667.432 734.6506,-674.3717"/>
</g>
<!-- mb -->
<g id="node17" class="node">
<title>mb</title>
<ellipse fill="none" stroke="#000000" cx="57.2958" cy="-666" rx="27" ry="18"/>
<text text-anchor="middle" x="57.2958" y="-661.8" font-family="Times,serif" font-size="14.00" fill="#000000">mb</text>
</g>
<!-- pz&#45;&gt;mb -->
<g id="edge12" class="edge">
<title>pz&#45;&gt;mb</title>
<path fill="none" stroke="#000000" d="M199.2785,-726.7355C173.3397,-715.8891 133.0773,-698.9708 98.2958,-684 95.2968,-682.7092 92.1783,-681.3574 89.0602,-679.9994"/>
<polygon fill="#000000" stroke="#000000" points="90.3916,-676.7617 79.827,-675.9616 87.5868,-683.1752 90.3916,-676.7617"/>
</g>
<!-- vr -->
<g id="node18" class="node">
<title>vr</title>
<ellipse fill="none" stroke="#000000" cx="338.2958" cy="-594" rx="27" ry="18"/>
<text text-anchor="middle" x="338.2958" y="-589.8" font-family="Times,serif" font-size="14.00" fill="#000000">vr</text>
</g>
<!-- pz&#45;&gt;vr -->
<g id="edge13" class="edge">
<title>pz&#45;&gt;vr</title>
<path fill="none" stroke="#000000" d="M245.4475,-719.766C255.666,-709.6391 268.1823,-696.5767 278.2958,-684 294.9068,-663.3435 311.4409,-638.1046 322.933,-619.6164"/>
<polygon fill="#000000" stroke="#000000" points="326.0488,-621.2309 328.302,-610.8785 320.0847,-617.5663 326.0488,-621.2309"/>
</g>
<!-- hp -->
<g id="node19" class="node">
<title>hp</title>
<ellipse fill="none" stroke="#000000" cx="338.2958" cy="-522" rx="27" ry="18"/>
<text text-anchor="middle" x="338.2958" y="-517.8" font-family="Times,serif" font-size="14.00" fill="#000000">hp</text>
</g>
<!-- pz&#45;&gt;hp -->
<g id="edge14" class="edge">
<title>pz&#45;&gt;hp</title>
<path fill="none" stroke="#000000" d="M233.8705,-719.5772C246.6578,-689.046 273.9198,-626.3358 302.2958,-576 307.7737,-566.283 314.3986,-556.0057 320.4642,-547.0547"/>
<polygon fill="#000000" stroke="#000000" points="323.4874,-548.8358 326.2801,-538.6156 317.7236,-544.8635 323.4874,-548.8358"/>
</g>
<!-- jp -->
<g id="node20" class="node">
<title>jp</title>
<ellipse fill="none" stroke="#000000" cx="357.2958" cy="-666" rx="27" ry="18"/>
<text text-anchor="middle" x="357.2958" y="-661.8" font-family="Times,serif" font-size="14.00" fill="#000000">jp</text>
</g>
<!-- pz&#45;&gt;jp -->
<g id="edge15" class="edge">
<title>pz&#45;&gt;jp</title>
<path fill="none" stroke="#000000" d="M253.4003,-719.8314C274.3652,-707.6565 303.277,-691.8415 325.3574,-680.5087"/>
<polygon fill="#000000" stroke="#000000" points="327.0192,-683.5904 334.3591,-675.9499 323.8565,-677.3455 327.0192,-683.5904"/>
</g>
<!-- ct -->
<g id="node42" class="node">
<title>ct</title>
<ellipse fill="none" stroke="#000000" cx="152.2958" cy="-450" rx="27" ry="18"/>
<text text-anchor="middle" x="152.2958" y="-445.8" font-family="Times,serif" font-size="14.00" fill="#000000">ct</text>
</g>
<!-- kt&#45;&gt;ct -->
<g id="edge41" class="edge">
<title>kt&#45;&gt;ct</title>
<path fill="none" stroke="#000000" d="M137.9925,-504.2022C140.0934,-496.2406 142.6198,-486.6671 144.9609,-477.7957"/>
<polygon fill="#000000" stroke="#000000" points="148.4199,-478.4046 147.5874,-467.8425 141.6516,-476.6185 148.4199,-478.4046"/>
</g>
<!-- gf -->
<g id="node28" class="node">
<title>gf</title>
<polygon fill="none" stroke="#ff9100" points="1007.2958,-612 953.2958,-612 953.2958,-576 1007.2958,-576 1007.2958,-612"/>
<text text-anchor="middle" x="980.2958" y="-589.8" font-family="Times,serif" font-size="14.00" fill="#000000">gf</text>
</g>
<!-- pg&#45;&gt;gf -->
<g id="edge49" class="edge">
<title>pg&#45;&gt;gf</title>
<path fill="none" stroke="#000000" d="M798.6189,-656.5873C835.7008,-643.8126 902.0767,-620.9463 943.5099,-606.6727"/>
<polygon fill="#000000" stroke="#000000" points="944.6513,-609.9814 952.966,-603.4151 942.3713,-603.3631 944.6513,-609.9814"/>
</g>
<!-- jc -->
<g id="node55" class="node">
<title>jc</title>
<ellipse fill="none" stroke="#000000" cx="95.2958" cy="-594" rx="27" ry="18"/>
<text text-anchor="middle" x="95.2958" y="-589.8" font-family="Times,serif" font-size="14.00" fill="#000000">jc</text>
</g>
<!-- mb&#45;&gt;jc -->
<g id="edge76" class="edge">
<title>mb&#45;&gt;jc</title>
<path fill="none" stroke="#000000" d="M66.3013,-648.937C70.7786,-640.4537 76.291,-630.0092 81.3029,-620.513"/>
<polygon fill="#000000" stroke="#000000" points="84.5187,-621.9182 86.091,-611.4407 78.328,-618.6509 84.5187,-621.9182"/>
</g>
<!-- vr&#45;&gt;hp -->
<g id="edge90" class="edge">
<title>vr&#45;&gt;hp</title>
<path fill="none" stroke="#000000" d="M338.2958,-575.8314C338.2958,-568.131 338.2958,-558.9743 338.2958,-550.4166"/>
<polygon fill="#000000" stroke="#000000" points="341.7959,-550.4132 338.2958,-540.4133 334.7959,-550.4133 341.7959,-550.4132"/>
</g>
<!-- hp&#45;&gt;tx -->
<g id="edge82" class="edge">
<title>hp&#45;&gt;tx</title>
<path fill="none" stroke="#000000" d="M351.1551,-538.1891C358.81,-548.5049 368.1905,-562.438 374.2958,-576 394.3025,-620.4414 403.4132,-636.3246 393.2958,-684 373.0724,-779.2973 316.8122,-881.7962 289.1137,-928.3641"/>
<polygon fill="#000000" stroke="#000000" points="285.9713,-926.7983 283.8168,-937.1718 291.97,-930.406 285.9713,-926.7983"/>
</g>
<!-- jp&#45;&gt;pz -->
<g id="edge92" class="edge">
<title>jp&#45;&gt;pz</title>
<path fill="none" stroke="#000000" d="M338.451,-679.3141C318.5767,-691.1575 287.1098,-708.5295 262.4803,-721.3006"/>
<polygon fill="#000000" stroke="#000000" points="260.7159,-718.2719 253.414,-725.9488 263.9095,-724.501 260.7159,-718.2719"/>
</g>
<!-- jp&#45;&gt;vr -->
<g id="edge93" class="edge">
<title>jp&#45;&gt;vr</title>
<path fill="none" stroke="#000000" d="M352.5992,-648.2022C350.4982,-640.2406 347.9719,-630.6671 345.6308,-621.7957"/>
<polygon fill="#000000" stroke="#000000" points="348.94,-620.6185 343.0043,-611.8425 342.1717,-622.4046 348.94,-620.6185"/>
</g>
<!-- vp -->
<g id="node26" class="node">
<title>vp</title>
<ellipse fill="none" stroke="#000000" cx="1821.2958" cy="-450" rx="27" ry="18"/>
<text text-anchor="middle" x="1821.2958" y="-445.8" font-family="Times,serif" font-size="14.00" fill="#000000">vp</text>
</g>
<!-- fb&#45;&gt;vp -->
<g id="edge85" class="edge">
<title>fb&#45;&gt;vp</title>
<path fill="none" stroke="#000000" d="M1806.9925,-504.2022C1809.0934,-496.2406 1811.6198,-486.6671 1813.9609,-477.7957"/>
<polygon fill="#000000" stroke="#000000" points="1817.4199,-478.4046 1816.5874,-467.8425 1810.6516,-476.6185 1817.4199,-478.4046"/>
</g>
<!-- zb&#45;&gt;fb -->
<g id="edge75" class="edge">
<title>zb&#45;&gt;fb</title>
<path fill="none" stroke="#000000" d="M1725.1646,-580.4574C1739.5364,-569.565 1759.9339,-554.1059 1776.1435,-541.8207"/>
<polygon fill="#000000" stroke="#000000" points="1778.3285,-544.5564 1784.1842,-535.7267 1774.1004,-538.9776 1778.3285,-544.5564"/>
</g>
<!-- jq&#45;&gt;jt -->
<g id="edge32" class="edge">
<title>jq&#45;&gt;jt</title>
<path fill="none" stroke="#000000" d="M1612.284,-889.3898C1620.4622,-892.6567 1629.3083,-896.5351 1637.2958,-900 1664.4492,-911.7788 1694.9567,-924.8574 1718.1192,-935.1932"/>
<polygon fill="#000000" stroke="#000000" points="1716.6912,-938.3885 1727.2469,-939.2985 1719.5625,-932.0045 1716.6912,-938.3885"/>
</g>
<!-- qt -->
<g id="node37" class="node">
<title>qt</title>
<ellipse fill="none" stroke="#000000" cx="1726.2958" cy="-810" rx="27" ry="18"/>
<text text-anchor="middle" x="1726.2958" y="-805.8" font-family="Times,serif" font-size="14.00" fill="#000000">qt</text>
</g>
<!-- jq&#45;&gt;qt -->
<g id="edge33" class="edge">
<title>jq&#45;&gt;qt</title>
<path fill="none" stroke="#000000" d="M1608.71,-870.9078C1631.9059,-858.8927 1669.1185,-839.617 1695.4611,-825.9719"/>
<polygon fill="#000000" stroke="#000000" points="1697.3587,-828.9308 1704.6284,-821.2234 1694.139,-822.7151 1697.3587,-828.9308"/>
</g>
<!-- sv&#45;&gt;gf -->
<g id="edge37" class="edge">
<title>sv&#45;&gt;gf</title>
<path fill="none" stroke="#000000" d="M1095.1451,-791.9349C1079.0246,-767.7323 1049.9641,-723.273 1027.2958,-684 1015.3998,-663.39 1002.98,-639.4888 993.8971,-621.4992"/>
<polygon fill="#000000" stroke="#000000" points="996.8307,-619.5412 989.2189,-612.1715 990.5736,-622.6794 996.8307,-619.5412"/>
</g>
<!-- jm -->
<g id="node38" class="node">
<title>jm</title>
<ellipse fill="none" stroke="#000000" cx="1878.2958" cy="-306" rx="27" ry="18"/>
<text text-anchor="middle" x="1878.2958" y="-301.8" font-family="Times,serif" font-size="14.00" fill="#000000">jm</text>
</g>
<!-- lp&#45;&gt;jm -->
<g id="edge34" class="edge">
<title>lp&#45;&gt;jm</title>
<path fill="none" stroke="#000000" d="M1833.946,-362.0209C1841.3994,-352.6061 1850.9734,-340.5126 1859.3172,-329.973"/>
<polygon fill="#000000" stroke="#000000" points="1862.2181,-331.9474 1865.681,-321.9345 1856.7298,-327.6025 1862.2181,-331.9474"/>
</g>
<!-- vp&#45;&gt;jt -->
<g id="edge23" class="edge">
<title>vp&#45;&gt;jt</title>
<path fill="none" stroke="#000000" d="M1828.581,-467.384C1839.1003,-494.1035 1857.2958,-547.0997 1857.2958,-594 1857.2958,-810 1857.2958,-810 1857.2958,-810 1857.2958,-859.2363 1816.9681,-903.2364 1786.7807,-929.2755"/>
<polygon fill="#000000" stroke="#000000" points="1784.388,-926.714 1778.9669,-935.8169 1788.8814,-932.0815 1784.388,-926.714"/>
</g>
<!-- vp&#45;&gt;lp -->
<g id="edge22" class="edge">
<title>vp&#45;&gt;lp</title>
<path fill="none" stroke="#000000" d="M1821.2958,-431.8314C1821.2958,-424.131 1821.2958,-414.9743 1821.2958,-406.4166"/>
<polygon fill="#000000" stroke="#000000" points="1824.7959,-406.4132 1821.2958,-396.4133 1817.7959,-406.4133 1824.7959,-406.4132"/>
</g>
<!-- qs&#45;&gt;gf -->
<g id="edge24" class="edge">
<title>qs&#45;&gt;gf</title>
<path fill="none" stroke="#000000" d="M960.1091,-647.8314C963.0602,-639.9617 966.5816,-630.5712 969.8509,-621.8533"/>
<polygon fill="#000000" stroke="#000000" points="973.1567,-623.0055 973.3909,-612.4133 966.6024,-620.5476 973.1567,-623.0055"/>
</g>
<!-- rx -->
<g id="node59" class="node">
<title>rx</title>
<polygon fill="none" stroke="#0000ff" points="1007.2958,-540 953.2958,-540 953.2958,-504 1007.2958,-504 1007.2958,-540"/>
<text text-anchor="middle" x="980.2958" y="-517.8" font-family="Times,serif" font-size="14.00" fill="#000000">rx</text>
</g>
<!-- gf&#45;&gt;rx -->
<g id="edge102" class="edge">
<title>gf&#45;&gt;rx</title>
<path fill="none" stroke="#000000" d="M980.2958,-575.8314C980.2958,-568.131 980.2958,-558.9743 980.2958,-550.4166"/>
<polygon fill="#000000" stroke="#000000" points="983.7959,-550.4132 980.2958,-540.4133 976.7959,-550.4133 983.7959,-550.4132"/>
</g>
<!-- lj -->
<g id="node29" class="node">
<title>lj</title>
<ellipse fill="none" stroke="#000000" cx="1726.2958" cy="-738" rx="27" ry="18"/>
<text text-anchor="middle" x="1726.2958" y="-733.8" font-family="Times,serif" font-size="14.00" fill="#000000">lj</text>
</g>
<!-- lj&#45;&gt;jt -->
<g id="edge25" class="edge">
<title>lj&#45;&gt;jt</title>
<path fill="none" stroke="#000000" d="M1740.4188,-753.7156C1748.5493,-763.8532 1757.9859,-777.7653 1762.2958,-792 1775.9914,-837.2335 1768.2905,-892.7874 1761.3619,-925.687"/>
<polygon fill="#000000" stroke="#000000" points="1757.9272,-925.0088 1759.1676,-935.5308 1764.7596,-926.5319 1757.9272,-925.0088"/>
</g>
<!-- dt -->
<g id="node30" class="node">
<title>dt</title>
<ellipse fill="none" stroke="#000000" cx="1707.2958" cy="-666" rx="27" ry="18"/>
<text text-anchor="middle" x="1707.2958" y="-661.8" font-family="Times,serif" font-size="14.00" fill="#000000">dt</text>
</g>
<!-- lj&#45;&gt;dt -->
<g id="edge26" class="edge">
<title>lj&#45;&gt;dt</title>
<path fill="none" stroke="#000000" d="M1721.5992,-720.2022C1719.4982,-712.2406 1716.9719,-702.6671 1714.6308,-693.7957"/>
<polygon fill="#000000" stroke="#000000" points="1717.94,-692.6185 1712.0043,-683.8425 1711.1717,-694.4046 1717.94,-692.6185"/>
</g>
<!-- dt&#45;&gt;jt -->
<g id="edge60" class="edge">
<title>dt&#45;&gt;jt</title>
<path fill="none" stroke="#000000" d="M1700.2291,-683.674C1696.4569,-694.0654 1692.2069,-707.5654 1690.2958,-720 1683.0044,-767.443 1679.1199,-781.3192 1690.2958,-828 1699.0976,-864.7643 1720.4881,-902.917 1736.1253,-927.4691"/>
<polygon fill="#000000" stroke="#000000" points="1733.2048,-929.3982 1741.5922,-935.8715 1739.0722,-925.5807 1733.2048,-929.3982"/>
</g>
<!-- dt&#45;&gt;zb -->
<g id="edge61" class="edge">
<title>dt&#45;&gt;zb</title>
<path fill="none" stroke="#000000" d="M1707.2958,-647.8314C1707.2958,-640.131 1707.2958,-630.9743 1707.2958,-622.4166"/>
<polygon fill="#000000" stroke="#000000" points="1710.7959,-622.4132 1707.2958,-612.4133 1703.7959,-622.4133 1710.7959,-622.4132"/>
</g>
<!-- jh -->
<g id="node31" class="node">
<title>jh</title>
<ellipse fill="none" stroke="#000000" cx="737.2958" cy="-18" rx="27" ry="18"/>
<text text-anchor="middle" x="737.2958" y="-13.8" font-family="Times,serif" font-size="14.00" fill="#000000">jh</text>
</g>
<!-- jh&#45;&gt;mh -->
<g id="edge27" class="edge">
<title>jh&#45;&gt;mh</title>
<path fill="none" stroke="#000000" d="M754.0361,-32.5388C779.8172,-56.6399 826.2958,-107.6293 826.2958,-162 826.2958,-594 826.2958,-594 826.2958,-594 826.2958,-634.8816 833.3565,-652.5016 807.2958,-684 784.3137,-711.7775 744.5903,-725.499 715.2796,-732.125"/>
<polygon fill="#000000" stroke="#000000" points="714.4672,-728.719 705.3908,-734.1841 715.8943,-735.572 714.4672,-728.719"/>
</g>
<!-- xc&#45;&gt;nx -->
<g id="edge28" class="edge">
<title>xc&#45;&gt;nx</title>
<path fill="none" stroke="#000000" d="M1306.2958,-431.8314C1306.2958,-424.131 1306.2958,-414.9743 1306.2958,-406.4166"/>
<polygon fill="#000000" stroke="#000000" points="1309.7959,-406.4132 1306.2958,-396.4133 1302.7959,-406.4133 1309.7959,-406.4132"/>
</g>
<!-- hx&#45;&gt;xb -->
<g id="edge29" class="edge">
<title>hx&#45;&gt;xb</title>
<path fill="none" stroke="#000000" d="M857.7388,-656.8812C824.8958,-644.1677 765.2076,-621.0626 728.0485,-606.6784"/>
<polygon fill="#000000" stroke="#000000" points="729.2508,-603.3908 718.6616,-603.0448 726.7238,-609.9188 729.2508,-603.3908"/>
</g>
<!-- jf -->
<g id="node57" class="node">
<title>jf</title>
<ellipse fill="none" stroke="#000000" cx="657.2958" cy="-522" rx="27" ry="18"/>
<text text-anchor="middle" x="657.2958" y="-517.8" font-family="Times,serif" font-size="14.00" fill="#000000">jf</text>
</g>
<!-- xb&#45;&gt;jf -->
<g id="edge103" class="edge">
<title>xb&#45;&gt;jf</title>
<path fill="none" stroke="#000000" d="M686.2904,-576.937C681.8131,-568.4537 676.3007,-558.0092 671.2888,-548.513"/>
<polygon fill="#000000" stroke="#000000" points="674.2636,-546.6509 666.5006,-539.4407 668.0729,-549.9182 674.2636,-546.6509"/>
</g>
<!-- kd -->
<g id="node35" class="node">
<title>kd</title>
<ellipse fill="none" stroke="#000000" cx="152.2958" cy="-378" rx="27" ry="18"/>
<text text-anchor="middle" x="152.2958" y="-373.8" font-family="Times,serif" font-size="14.00" fill="#000000">kd</text>
</g>
<!-- kd&#45;&gt;pz -->
<g id="edge30" class="edge">
<title>kd&#45;&gt;pz</title>
<path fill="none" stroke="#000000" d="M166.5638,-393.4916C188.0673,-418.5178 226.2958,-470.2816 226.2958,-522 226.2958,-594 226.2958,-594 226.2958,-594 226.2958,-634.124 226.2958,-680.5369 226.2958,-709.5823"/>
<polygon fill="#000000" stroke="#000000" points="222.7959,-709.8146 226.2958,-719.8146 229.7959,-709.8147 222.7959,-709.8146"/>
</g>
<!-- pp -->
<g id="node36" class="node">
<title>pp</title>
<ellipse fill="none" stroke="#000000" cx="87.2958" cy="-306" rx="27" ry="18"/>
<text text-anchor="middle" x="87.2958" y="-301.8" font-family="Times,serif" font-size="14.00" fill="#000000">pp</text>
</g>
<!-- kd&#45;&gt;pp -->
<g id="edge31" class="edge">
<title>kd&#45;&gt;pp</title>
<path fill="none" stroke="#000000" d="M138.1918,-362.3771C129.4186,-352.659 117.9786,-339.987 108.1672,-329.1191"/>
<polygon fill="#000000" stroke="#000000" points="110.6713,-326.6698 101.3723,-321.5924 105.4755,-331.3605 110.6713,-326.6698"/>
</g>
<!-- pp&#45;&gt;pz -->
<g id="edge101" class="edge">
<title>pp&#45;&gt;pz</title>
<path fill="none" stroke="#000000" d="M71.308,-320.6921C46.6856,-345.0083 2.2958,-396.2937 2.2958,-450 2.2958,-594 2.2958,-594 2.2958,-594 2.2958,-634.8816 -6.8875,-654.3857 21.2958,-684 44.1905,-708.0572 136.6831,-725.0318 189.2689,-732.9542"/>
<polygon fill="#000000" stroke="#000000" points="188.8188,-736.4256 199.2215,-734.4174 189.837,-729.5 188.8188,-736.4256"/>
</g>
<!-- qt&#45;&gt;jt -->
<g id="edge108" class="edge">
<title>qt&#45;&gt;jt</title>
<path fill="none" stroke="#000000" d="M1729.8133,-828.0896C1734.5948,-852.6805 1743.194,-896.905 1748.8228,-925.8531"/>
<polygon fill="#000000" stroke="#000000" points="1745.4052,-926.6142 1750.7496,-935.7623 1752.2765,-925.2781 1745.4052,-926.6142"/>
</g>
<!-- qt&#45;&gt;lj -->
<g id="edge107" class="edge">
<title>qt&#45;&gt;lj</title>
<path fill="none" stroke="#000000" d="M1726.2958,-791.8314C1726.2958,-784.131 1726.2958,-774.9743 1726.2958,-766.4166"/>
<polygon fill="#000000" stroke="#000000" points="1729.7959,-766.4132 1726.2958,-756.4133 1722.7959,-766.4133 1729.7959,-766.4132"/>
</g>
<!-- jm&#45;&gt;jt -->
<g id="edge88" class="edge">
<title>jm&#45;&gt;jt</title>
<path fill="none" stroke="#000000" d="M1881.8182,-324.1045C1886.7976,-351.3176 1895.2958,-404.4358 1895.2958,-450 1895.2958,-810 1895.2958,-810 1895.2958,-810 1895.2958,-869.853 1832.3381,-914.0142 1790.561,-936.7295"/>
<polygon fill="#000000" stroke="#000000" points="1788.6978,-933.7551 1781.482,-941.513 1791.9607,-939.9481 1788.6978,-933.7551"/>
</g>
<!-- xk -->
<g id="node54" class="node">
<title>xk</title>
<ellipse fill="none" stroke="#000000" cx="1916.2958" cy="-234" rx="27" ry="18"/>
<text text-anchor="middle" x="1916.2958" y="-229.8" font-family="Times,serif" font-size="14.00" fill="#000000">xk</text>
</g>
<!-- jm&#45;&gt;xk -->
<g id="edge89" class="edge">
<title>jm&#45;&gt;xk</title>
<path fill="none" stroke="#000000" d="M1887.3013,-288.937C1891.7786,-280.4537 1897.291,-270.0092 1902.3029,-260.513"/>
<polygon fill="#000000" stroke="#000000" points="1905.5187,-261.9182 1907.091,-251.4407 1899.328,-258.6509 1905.5187,-261.9182"/>
</g>
<!-- ph&#45;&gt;pz -->
<g id="edge36" class="edge">
<title>ph&#45;&gt;pz</title>
<path fill="none" stroke="#000000" d="M183.7762,-793.6621C190.4616,-784.9102 198.8554,-773.922 206.4152,-764.0255"/>
<polygon fill="#000000" stroke="#000000" points="209.2244,-766.1137 212.5135,-756.0423 203.6617,-761.8644 209.2244,-766.1137"/>
</g>
<!-- ph&#45;&gt;mb -->
<g id="edge35" class="edge">
<title>ph&#45;&gt;mb</title>
<path fill="none" stroke="#000000" d="M158.6603,-794.0393C138.7159,-768.8464 99.8069,-719.6982 76.4251,-690.1633"/>
<polygon fill="#000000" stroke="#000000" points="78.9392,-687.7002 69.988,-682.0322 73.4509,-692.0452 78.9392,-687.7002"/>
</g>
<!-- ff&#45;&gt;xc -->
<g id="edge38" class="edge">
<title>ff&#45;&gt;xc</title>
<path fill="none" stroke="#000000" d="M1320.5992,-504.2022C1318.4982,-496.2406 1315.9719,-486.6671 1313.6308,-477.7957"/>
<polygon fill="#000000" stroke="#000000" points="1316.94,-476.6185 1311.0043,-467.8425 1310.1717,-478.4046 1316.94,-476.6185"/>
</g>
<!-- th -->
<g id="node41" class="node">
<title>th</title>
<ellipse fill="none" stroke="#000000" cx="742.2958" cy="-810" rx="27" ry="18"/>
<text text-anchor="middle" x="742.2958" y="-805.8" font-family="Times,serif" font-size="14.00" fill="#000000">th</text>
</g>
<!-- th&#45;&gt;mh -->
<g id="edge39" class="edge">
<title>th&#45;&gt;mh</title>
<path fill="none" stroke="#000000" d="M728.4088,-794.3771C720.4403,-785.4125 710.2375,-773.9344 701.1202,-763.6774"/>
<polygon fill="#000000" stroke="#000000" points="703.6744,-761.2826 694.4147,-756.1338 698.4425,-765.9332 703.6744,-761.2826"/>
</g>
<!-- th&#45;&gt;hx -->
<g id="edge40" class="edge">
<title>th&#45;&gt;hx</title>
<path fill="none" stroke="#000000" d="M756.9085,-794.8616C781.3507,-769.5402 830.6595,-718.4578 859.3078,-688.779"/>
<polygon fill="#000000" stroke="#000000" points="862.0337,-690.9946 866.4605,-681.3689 856.9972,-686.1331 862.0337,-690.9946"/>
</g>
<!-- ct&#45;&gt;pz -->
<g id="edge43" class="edge">
<title>ct&#45;&gt;pz</title>
<path fill="none" stroke="#000000" d="M158.2814,-467.9057C161.6933,-478.3743 165.9433,-491.8743 169.2958,-504 191.2144,-583.2768 192.4184,-604.187 212.2958,-684 214.3694,-692.3259 216.6845,-701.3564 218.8255,-709.6067"/>
<polygon fill="#000000" stroke="#000000" points="215.5027,-710.735 221.4133,-719.5279 222.2761,-708.9683 215.5027,-710.735"/>
</g>
<!-- ct&#45;&gt;kd -->
<g id="edge42" class="edge">
<title>ct&#45;&gt;kd</title>
<path fill="none" stroke="#000000" d="M152.2958,-431.8314C152.2958,-424.131 152.2958,-414.9743 152.2958,-406.4166"/>
<polygon fill="#000000" stroke="#000000" points="155.7959,-406.4132 152.2958,-396.4133 148.7959,-406.4133 155.7959,-406.4132"/>
</g>
<!-- xm -->
<g id="node58" class="node">
<title>xm</title>
<ellipse fill="none" stroke="#000000" cx="581.2958" cy="-378" rx="27" ry="18"/>
<text text-anchor="middle" x="581.2958" y="-373.8" font-family="Times,serif" font-size="14.00" fill="#000000">xm</text>
</g>
<!-- bc&#45;&gt;xm -->
<g id="edge106" class="edge">
<title>bc&#45;&gt;xm</title>
<path fill="none" stroke="#000000" d="M610.2904,-432.937C605.8131,-424.4537 600.3007,-414.0092 595.2888,-404.513"/>
<polygon fill="#000000" stroke="#000000" points="598.2636,-402.6509 590.5006,-395.4407 592.0729,-405.9182 598.2636,-402.6509"/>
</g>
<!-- nv&#45;&gt;mh -->
<g id="edge52" class="edge">
<title>nv&#45;&gt;mh</title>
<path fill="none" stroke="#000000" d="M701.8514,-864.6302C693.8909,-840.2465 683.6617,-795.5835 679.0982,-766.3467"/>
<polygon fill="#000000" stroke="#000000" points="682.5492,-765.7531 677.6879,-756.3394 675.6177,-766.7299 682.5492,-765.7531"/>
</g>
<!-- nv&#45;&gt;th -->
<g id="edge53" class="edge">
<title>nv&#45;&gt;th</title>
<path fill="none" stroke="#000000" d="M718.0421,-864.5708C721.7762,-856.1691 726.3362,-845.9091 730.4904,-836.5623"/>
<polygon fill="#000000" stroke="#000000" points="733.7578,-837.8283 734.6209,-827.2687 727.3611,-834.9853 733.7578,-837.8283"/>
</g>
<!-- kn&#45;&gt;rn -->
<g id="edge77" class="edge">
<title>kn&#45;&gt;rn</title>
<path fill="none" stroke="#000000" d="M1294.6632,-238.0541C1354.2795,-248.8709 1494.2958,-284.2544 1494.2958,-378 1494.2958,-594 1494.2958,-594 1494.2958,-594 1494.2958,-634.8816 1503.4792,-654.3857 1475.2958,-684 1452.4011,-708.0572 1359.9085,-725.0318 1307.3228,-732.9542"/>
<polygon fill="#000000" stroke="#000000" points="1306.7547,-729.5 1297.3701,-734.4174 1307.7729,-736.4256 1306.7547,-729.5"/>
</g>
<!-- kn&#45;&gt;mv -->
<g id="edge78" class="edge">
<title>kn&#45;&gt;mv</title>
<path fill="none" stroke="#000000" d="M1255.6457,-218.0209C1248.1923,-208.6061 1238.6183,-196.5126 1230.2745,-185.973"/>
<polygon fill="#000000" stroke="#000000" points="1232.8619,-183.6025 1223.9106,-177.9345 1227.3735,-187.9474 1232.8619,-183.6025"/>
</g>
<!-- sk&#45;&gt;hr -->
<g id="edge51" class="edge">
<title>sk&#45;&gt;hr</title>
<path fill="none" stroke="#000000" d="M1423.5486,-651.0816C1412.8489,-640.945 1398.5149,-627.3654 1386.5121,-615.9944"/>
<polygon fill="#000000" stroke="#000000" points="1388.6896,-613.236 1379.0229,-608.8993 1383.8753,-618.3177 1388.6896,-613.236"/>
</g>
<!-- hr&#45;&gt;ff -->
<g id="edge91" class="edge">
<title>hr&#45;&gt;ff</title>
<path fill="none" stroke="#000000" d="M1354.2904,-576.937C1349.8131,-568.4537 1344.3007,-558.0092 1339.2888,-548.513"/>
<polygon fill="#000000" stroke="#000000" points="1342.2636,-546.6509 1334.5006,-539.4407 1336.0729,-549.9182 1342.2636,-546.6509"/>
</g>
<!-- broadcaster -->
<g id="node48" class="node">
<title>broadcaster</title>
<ellipse fill="none" stroke="#000000" cx="1006.2958" cy="-954" rx="55.5753" ry="18"/>
<text text-anchor="middle" x="1006.2958" y="-949.8" font-family="Times,serif" font-size="14.00" fill="#000000">broadcaster</text>
</g>
<!-- broadcaster&#45;&gt;jp -->
<g id="edge59" class="edge">
<title>broadcaster&#45;&gt;jp</title>
<path fill="none" stroke="#000000" d="M953.376,-948.4632C872.8453,-939.5227 723.675,-920.7936 674.2958,-900 549.2265,-847.3333 427.629,-735.7671 379.2321,-688.2182"/>
<polygon fill="#000000" stroke="#000000" points="381.6709,-685.7075 372.1039,-681.1554 376.744,-690.6801 381.6709,-685.7075"/>
</g>
<!-- broadcaster&#45;&gt;jq -->
<g id="edge57" class="edge">
<title>broadcaster&#45;&gt;jq</title>
<path fill="none" stroke="#000000" d="M1058.367,-947.5471C1174.0584,-933.2101 1450.149,-898.9958 1550.2464,-886.5913"/>
<polygon fill="#000000" stroke="#000000" points="1550.9773,-890.0276 1560.4709,-885.3243 1550.1163,-883.0807 1550.9773,-890.0276"/>
</g>
<!-- broadcaster&#45;&gt;nv -->
<g id="edge58" class="edge">
<title>broadcaster&#45;&gt;nv</title>
<path fill="none" stroke="#000000" d="M961.6612,-943.1429C902.6398,-928.7864 799.8127,-903.7744 745.7828,-890.632"/>
<polygon fill="#000000" stroke="#000000" points="746.513,-887.2076 735.9691,-888.2448 744.8585,-894.0093 746.513,-887.2076"/>
</g>
<!-- broadcaster&#45;&gt;bx -->
<g id="edge56" class="edge">
<title>broadcaster&#45;&gt;bx</title>
<path fill="none" stroke="#000000" d="M1049.0054,-942.3519C1100.8051,-928.2247 1187.1401,-904.6788 1235.2295,-891.5636"/>
<polygon fill="#000000" stroke="#000000" points="1236.442,-894.8608 1245.1687,-888.8529 1234.6001,-888.1074 1236.442,-894.8608"/>
</g>
<!-- bx&#45;&gt;rn -->
<g id="edge104" class="edge">
<title>bx&#45;&gt;rn</title>
<path fill="none" stroke="#000000" d="M1265.652,-864.0535C1263.1687,-839.5852 1262.8814,-795.4896 1264.7901,-766.4799"/>
<polygon fill="#000000" stroke="#000000" points="1268.3062,-766.4238 1265.6292,-756.1727 1261.3293,-765.8557 1268.3062,-766.4238"/>
</g>
<!-- fx -->
<g id="node50" class="node">
<title>fx</title>
<ellipse fill="none" stroke="#000000" cx="1334.2958" cy="-810" rx="27" ry="18"/>
<text text-anchor="middle" x="1334.2958" y="-805.8" font-family="Times,serif" font-size="14.00" fill="#000000">fx</text>
</g>
<!-- bx&#45;&gt;fx -->
<g id="edge105" class="edge">
<title>bx&#45;&gt;fx</title>
<path fill="none" stroke="#000000" d="M1284.1829,-866.3771C1292.8212,-856.659 1304.0851,-843.987 1313.7455,-833.1191"/>
<polygon fill="#000000" stroke="#000000" points="1316.4082,-835.3918 1320.4359,-825.5924 1311.1763,-830.7413 1316.4082,-835.3918"/>
</g>
<!-- fx&#45;&gt;rn -->
<g id="edge63" class="edge">
<title>fx&#45;&gt;rn</title>
<path fill="none" stroke="#000000" d="M1320.4088,-794.3771C1312.4403,-785.4125 1302.2375,-773.9344 1293.1202,-763.6774"/>
<polygon fill="#000000" stroke="#000000" points="1295.6744,-761.2826 1286.4147,-756.1338 1290.4425,-765.9332 1295.6744,-761.2826"/>
</g>
<!-- fx&#45;&gt;sk -->
<g id="edge62" class="edge">
<title>fx&#45;&gt;sk</title>
<path fill="none" stroke="#000000" d="M1346.1366,-793.7613C1364.4908,-768.5897 1399.9285,-719.9895 1421.4127,-690.5254"/>
<polygon fill="#000000" stroke="#000000" points="1424.2735,-692.5425 1427.3373,-682.4003 1418.6175,-688.4183 1424.2735,-692.5425"/>
</g>
<!-- rv&#45;&gt;rn -->
<g id="edge64" class="edge">
<title>rv&#45;&gt;rn</title>
<path fill="none" stroke="#000000" d="M1139.7014,-35.9823C1131.7929,-63.0397 1118.2958,-115.9615 1118.2958,-162 1118.2958,-594 1118.2958,-594 1118.2958,-594 1118.2958,-639.7584 1135.6147,-651.9724 1168.2958,-684 1186.7866,-702.121 1212.5965,-715.7062 1233.6265,-724.718"/>
<polygon fill="#000000" stroke="#000000" points="1232.3295,-727.969 1242.9091,-728.5366 1234.9926,-721.4953 1232.3295,-727.969"/>
</g>
<!-- gv -->
<g id="node52" class="node">
<title>gv</title>
<ellipse fill="none" stroke="#000000" cx="562.2958" cy="-306" rx="27" ry="18"/>
<text text-anchor="middle" x="562.2958" y="-301.8" font-family="Times,serif" font-size="14.00" fill="#000000">gv</text>
</g>
<!-- gv&#45;&gt;nr -->
<g id="edge66" class="edge">
<title>gv&#45;&gt;nr</title>
<path fill="none" stroke="#000000" d="M562.2958,-287.8314C562.2958,-280.131 562.2958,-270.9743 562.2958,-262.4166"/>
<polygon fill="#000000" stroke="#000000" points="565.7959,-262.4132 562.2958,-252.4133 558.7959,-262.4133 565.7959,-262.4132"/>
</g>
<!-- gv&#45;&gt;mh -->
<g id="edge65" class="edge">
<title>gv&#45;&gt;mh</title>
<path fill="none" stroke="#000000" d="M555.0107,-323.384C544.4914,-350.1035 526.2958,-403.0997 526.2958,-450 526.2958,-594 526.2958,-594 526.2958,-594 526.2958,-639.7584 543.6147,-651.9724 576.2958,-684 594.7866,-702.121 620.5965,-715.7062 641.6265,-724.718"/>
<polygon fill="#000000" stroke="#000000" points="640.3295,-727.969 650.9091,-728.5366 642.9926,-721.4953 640.3295,-727.969"/>
</g>
<!-- vh&#45;&gt;mh -->
<g id="edge73" class="edge">
<title>vh&#45;&gt;mh</title>
<path fill="none" stroke="#000000" d="M621.5415,-95.9085C568.1423,-109.8497 450.2958,-150.1187 450.2958,-234 450.2958,-594 450.2958,-594 450.2958,-594 450.2958,-639.3333 463.2218,-655.2785 498.2958,-684 539.6575,-717.8702 601.8143,-730.5051 641.2002,-735.2125"/>
<polygon fill="#000000" stroke="#000000" points="640.8636,-738.6964 651.1824,-736.2941 641.6177,-731.7371 640.8636,-738.6964"/>
</g>
<!-- vh&#45;&gt;jh -->
<g id="edge74" class="edge">
<title>vh&#45;&gt;jh</title>
<path fill="none" stroke="#000000" d="M664.6487,-76.1177C678.0955,-65.3602 696.9198,-50.3009 712.0369,-38.2072"/>
<polygon fill="#000000" stroke="#000000" points="714.3739,-40.8197 719.9962,-31.8397 710.001,-35.3536 714.3739,-40.8197"/>
</g>
<!-- xk&#45;&gt;nk -->
<g id="edge72" class="edge">
<title>xk&#45;&gt;nk</title>
<path fill="none" stroke="#000000" d="M1925.3013,-216.937C1929.7786,-208.4537 1935.291,-198.0092 1940.3029,-188.513"/>
<polygon fill="#000000" stroke="#000000" points="1943.5187,-189.9182 1945.091,-179.4407 1937.328,-186.6509 1943.5187,-189.9182"/>
</g>
<!-- xk&#45;&gt;jt -->
<g id="edge71" class="edge">
<title>xk&#45;&gt;jt</title>
<path fill="none" stroke="#000000" d="M1919.8182,-252.1045C1924.7976,-279.3176 1933.2958,-332.4358 1933.2958,-378 1933.2958,-810 1933.2958,-810 1933.2958,-810 1933.2958,-882.3156 1843.5038,-924.4298 1791.1118,-942.8476"/>
<polygon fill="#000000" stroke="#000000" points="1789.8272,-939.5874 1781.4821,-946.1151 1792.0764,-946.2162 1789.8272,-939.5874"/>
</g>
<!-- jc&#45;&gt;pz -->
<g id="edge79" class="edge">
<title>jc&#45;&gt;pz</title>
<path fill="none" stroke="#000000" d="M100.0016,-612.0213C105.8483,-631.589 117.4259,-662.8685 136.2958,-684 150.9719,-700.4351 171.8639,-713.3921 189.8251,-722.4899"/>
<polygon fill="#000000" stroke="#000000" points="188.3773,-725.6776 198.9021,-726.8937 191.4328,-719.3797 188.3773,-725.6776"/>
</g>
<!-- jc&#45;&gt;kt -->
<g id="edge80" class="edge">
<title>jc&#45;&gt;kt</title>
<path fill="none" stroke="#000000" d="M104.3013,-576.937C108.7786,-568.4537 114.291,-558.0092 119.3029,-548.513"/>
<polygon fill="#000000" stroke="#000000" points="122.5187,-549.9182 124.091,-539.4407 116.328,-546.6509 122.5187,-549.9182"/>
</g>
<!-- sp&#45;&gt;gf -->
<g id="edge81" class="edge">
<title>sp&#45;&gt;gf</title>
<path fill="none" stroke="#000000" d="M1042.3514,-647.8314C1032.2267,-639.0485 1019.9182,-628.3712 1008.941,-618.8489"/>
<polygon fill="#000000" stroke="#000000" points="1011.0809,-616.0718 1001.2335,-612.1628 1006.494,-621.3595 1011.0809,-616.0718"/>
</g>
<!-- jf&#45;&gt;mh -->
<g id="edge84" class="edge">
<title>jf&#45;&gt;mh</title>
<path fill="none" stroke="#000000" d="M657.0209,-540.3084C656.9079,-558.5198 657.1628,-587.2418 659.2958,-612 662.2035,-645.7498 668.4305,-684.2049 672.9657,-709.6616"/>
<polygon fill="#000000" stroke="#000000" points="669.5623,-710.5095 674.7911,-719.7242 676.4499,-709.26 669.5623,-710.5095"/>
</g>
<!-- jf&#45;&gt;bc -->
<g id="edge83" class="edge">
<title>jf&#45;&gt;bc</title>
<path fill="none" stroke="#000000" d="M648.2904,-504.937C643.8131,-496.4537 638.3007,-486.0092 633.2888,-476.513"/>
<polygon fill="#000000" stroke="#000000" points="636.2636,-474.6509 628.5006,-467.4407 630.0729,-477.9182 636.2636,-474.6509"/>
</g>
<!-- xm&#45;&gt;mh -->
<g id="edge86" class="edge">
<title>xm&#45;&gt;mh</title>
<path fill="none" stroke="#000000" d="M577.7734,-396.1045C572.794,-423.3176 564.2958,-476.4358 564.2958,-522 564.2958,-594 564.2958,-594 564.2958,-594 564.2958,-645.4409 609.5694,-689.2346 643.0549,-714.5904"/>
<polygon fill="#000000" stroke="#000000" points="641.1483,-717.5328 651.2794,-720.633 645.2929,-711.8916 641.1483,-717.5328"/>
</g>
<!-- xm&#45;&gt;gv -->
<g id="edge87" class="edge">
<title>xm&#45;&gt;gv</title>
<path fill="none" stroke="#000000" d="M576.5992,-360.2022C574.4982,-352.2406 571.9719,-342.6671 569.6308,-333.7957"/>
<polygon fill="#000000" stroke="#000000" points="572.94,-332.6185 567.0043,-323.8425 566.1717,-334.4046 572.94,-332.6185"/>
</g>
</g>
</svg>